<svg width="26" height="16" fill="none" xmlns="http://www.w3.org/2000/svg"><path d="M25.904 7.675C25.699 7.361 20.778 0 13 0 6.325 0 .378 7.319.128 7.63a.598.598 0 000 .74C.378 8.68 6.325 16 13 16c6.674 0 12.622-7.319 12.872-7.63a.596.596 0 00.032-.695zM13 14.857C7.65 14.857 2.562 9.474 1.27 8 2.56 6.525 7.641 1.143 13 1.143c6.26 0 10.68 5.375 11.759 6.826-1.246 1.428-6.363 6.888-11.759 6.888z" fill="#FF5520"/><path d="M13 3.429c-2.39 0-4.333 2.05-4.333 4.571S10.61 12.571 13 12.571s4.333-2.05 4.333-4.571S15.39 3.429 13 3.429zm0 8c-1.792 0-3.25-1.539-3.25-3.429S11.208 4.571 13 4.571 16.25 6.11 16.25 8s-1.458 3.429-3.25 3.429z" fill="#FF5520"/></svg>