<svg width="6" height="6" viewBox="0 0 6 6" fill="none" xmlns="http://www.w3.org/2000/svg">
<path d="M5.50004 0C5.37208 0 5.24412 0.0488097 5.14649 0.146536L0.146519 5.14616C-0.0488397 5.34151 -0.0488397 5.65787 0.146519 5.8531C0.341771 6.04834 0.658255 6.04845 0.853507 5.8531L5.85348 0.853475C6.04884 0.65813 6.04884 0.341775 5.85348 0.146536C5.75585 0.0488097 5.628 0 5.50004 0Z" fill="black"/>
<path d="M0.49996 0.000387167C0.371999 0.000387167 0.244145 0.0491968 0.146519 0.146923C-0.0488397 0.342162 -0.0488397 0.658624 0.146519 0.853862L5.14649 5.85349C5.34185 6.04884 5.65823 6.04884 5.85348 5.85349C6.04873 5.65825 6.04884 5.34179 5.85348 5.14655L0.853507 0.146923C0.755881 0.0491968 0.627921 0.000387167 0.49996 0.000387167Z" fill="black"/>
</svg>
