<svg width="16" height="16" viewBox="0 0 16 16" fill="none" xmlns="http://www.w3.org/2000/svg">
<path d="M8.00008 0C3.58883 0 0 3.58869 0 7.99977C0 12.4112 3.58883 16 8.00008 16C12.4112 16 16 12.4111 16 7.99977C16 3.58869 12.4112 0 8.00008 0ZM8.00008 14.8532C4.22118 14.8532 1.14681 11.7787 1.14681 7.99977C1.14681 4.22102 4.22118 1.14679 8.00008 1.14679C11.7789 1.14679 14.8532 4.22102 14.8532 7.99977C14.8532 11.7787 11.7789 14.8532 8.00008 14.8532Z" fill="#FF5520"/>
<path d="M12.1136 7.8659H8.35406V3.75642C8.35406 3.43976 8.0974 3.18303 7.78065 3.18303C7.46398 3.18303 7.20725 3.43976 7.20725 3.75642V8.4393C7.20725 8.75596 7.46398 9.01269 7.78065 9.01269H12.1136C12.4304 9.01269 12.687 8.75596 12.687 8.4393C12.687 8.12263 12.4303 7.8659 12.1136 7.8659Z" fill="#FF5520"/>
</svg>
