<svg width="26" height="16" viewBox="0 0 26 16" fill="none" xmlns="http://www.w3.org/2000/svg">
<path d="M25.9037 7.67544C25.699 7.36113 20.7784 0 13 0C6.32541 0 0.377806 7.31887 0.127552 7.63087C-0.0425173 7.84344 -0.0425173 8.15544 0.127552 8.36913C0.377806 8.68113 6.32541 16 13 16C19.6745 16 25.622 8.68113 25.8723 8.36913C26.0294 8.17258 26.0435 7.88801 25.9037 7.67544ZM13 14.8572C7.6493 14.8572 2.56184 9.47431 1.26944 8.00003C2.55971 6.52462 7.64173 1.14289 13 1.14289C19.2606 1.14289 23.6796 6.51776 24.7587 7.96917C23.5128 9.39658 18.3961 14.8572 13 14.8572Z" fill="#FF5520"/>
<path d="M13 3.42857C10.6101 3.42857 8.66656 5.47885 8.66656 7.99997C8.66656 10.5211 10.6101 12.5714 13 12.5714C15.3898 12.5714 17.3333 10.5211 17.3333 7.99997C17.3333 5.47885 15.3898 3.42857 13 3.42857ZM13 11.4286C11.2081 11.4286 9.7499 9.89029 9.7499 8.00003C9.7499 6.10976 11.2081 4.57146 13 4.57146C14.7918 4.57146 16.25 6.10976 16.25 8.00003C16.25 9.89029 14.7918 11.4286 13 11.4286Z" fill="#FF5520"/>
</svg>
