<svg width="24" height="24" viewBox="0 0 24 24" xmlns="http://www.w3.org/2000/svg">
<path d="M11.9994 21C11.8678 21.0008 11.7373 20.9756 11.6155 20.9258C11.4936 20.876 11.3828 20.8027 11.2894 20.71L3.51938 12.93C2.54475 11.9452 1.99805 10.6156 1.99805 9.23002C1.99805 7.84445 2.54475 6.51484 3.51938 5.53002C4.50165 4.55053 5.83221 4.00049 7.21938 4.00049C8.60655 4.00049 9.93712 4.55053 10.9194 5.53002L11.9994 6.61002L13.0794 5.53002C14.0616 4.55053 15.3922 4.00049 16.7794 4.00049C18.1666 4.00049 19.4971 4.55053 20.4794 5.53002C21.454 6.51484 22.0007 7.84445 22.0007 9.23002C22.0007 10.6156 21.454 11.9452 20.4794 12.93L12.7094 20.71C12.6159 20.8027 12.5051 20.876 12.3833 20.9258C12.2615 20.9756 12.131 21.0008 11.9994 21Z" />
</svg>
